<?xml version="1.0" encoding="UTF-8" standalone="no"?>
<svg
   width="64"
   height="64"
   version="1"
   id="svg12"
   sodipodi:docname="application-default-icon.svg"
   xml:space="preserve"
   inkscape:version="1.2.2 (732a01da63, 2022-12-09)"
   xmlns:inkscape="http://www.inkscape.org/namespaces/inkscape"
   xmlns:sodipodi="http://sodipodi.sourceforge.net/DTD/sodipodi-0.dtd"
   xmlns="http://www.w3.org/2000/svg"
   xmlns:svg="http://www.w3.org/2000/svg"><defs
     id="defs16"><inkscape:path-effect
       effect="spiro"
       id="path-effect4571"
       is_visible="true"
       lpeversion="1" /><inkscape:path-effect
       effect="fillet_chamfer"
       id="path-effect4298"
       is_visible="true"
       lpeversion="1"
       nodesatellites_param="F,0,0,1,0,4,0,1 @ F,0,0,1,0,4,0,1 @ F,0,0,1,0,4,0,1 @ F,0,0,1,0,4,0,1 @ F,0,0,1,0,4,0,1 @ F,0,0,1,0,4,0,1 @ F,0,0,1,0,4,0,1 @ F,0,0,1,0,4,0,1 @ F,0,0,1,0,4,0,1 @ F,0,0,1,0,4,0,1 @ F,0,0,1,0,4,0,1 @ F,0,0,1,0,4,0,1 @ F,0,0,1,0,4,0,1 @ F,0,0,1,0,4,0,1 @ F,0,0,1,0,4,0,1 @ F,0,0,1,0,4,0,1"
       unit="px"
       method="auto"
       mode="F"
       radius="4"
       chamfer_steps="1"
       flexible="false"
       use_knot_distance="true"
       apply_no_radius="true"
       apply_with_radius="true"
       only_selected="false"
       hide_knots="false" /><inkscape:path-effect
       effect="fillet_chamfer"
       id="path-effect4069"
       is_visible="true"
       lpeversion="1"
       nodesatellites_param="F,0,0,1,0,12,0,1 @ F,0,0,1,0,12,0,1 @ F,0,0,1,0,12,0,1 @ F,0,0,1,0,12,0,1"
       unit="px"
       method="auto"
       mode="F"
       radius="12"
       chamfer_steps="1"
       flexible="false"
       use_knot_distance="true"
       apply_no_radius="true"
       apply_with_radius="true"
       only_selected="false"
       hide_knots="false" /></defs><sodipodi:namedview
     id="namedview14"
     pagecolor="#ffffff"
     bordercolor="#666666"
     borderopacity="1.0"
     inkscape:showpageshadow="2"
     inkscape:pageopacity="0.0"
     inkscape:pagecheckerboard="0"
     inkscape:deskcolor="#d1d1d1"
     showgrid="false"
     inkscape:zoom="3.2385491"
     inkscape:cx="60.984099"
     inkscape:cy="32.113146"
     inkscape:window-width="1920"
     inkscape:window-height="1009"
     inkscape:window-x="-8"
     inkscape:window-y="-8"
     inkscape:window-maximized="1"
     inkscape:current-layer="text3860" /><path
     style="opacity:0.2"
     d="M 37.980771,5.1966845 C 34.940932,4.3821623 31.836423,6.1745519 31.0219,9.21439 c -0.428735,1.600061 -1.444421,2.286459 -3.749116,3.057575 -2.842268,0.95098 -4.718493,1.239996 -6.318146,-0.359651 -2.225314,-2.2253164 -5.80879,-2.2238378 -8.034107,0.0015 l -2.009606,2.00638 c -2.2253164,2.225318 -2.223837,5.808791 0.0015,8.034107 1.113881,1.11388 1.010148,3.187779 0.510503,5.532227 -0.636947,2.988696 -0.823568,3.896832 -3.2082219,4.535797 -3.0398384,0.814522 -4.8328566,3.917162 -4.0183349,6.957001 l 0.7371784,2.742384 c 0.8145217,3.039838 3.9171637,4.832856 6.9570014,4.018336 2.086905,-0.559184 3.183657,0.516046 4.880898,2.131586 2.2827,2.172821 3.023714,3.241606 2.488644,5.238514 -0.814521,3.03984 0.977869,6.144349 4.017705,6.958869 l 1.370752,0.367293 1.370751,0.367292 c 3.039837,0.814522 6.144348,-0.977868 6.958871,-4.017705 0.535068,-1.99691 1.711199,-2.551997 4.774487,-3.292365 2.277623,-0.55048 3.765051,-0.933279 5.292773,0.59444 2.225316,2.225316 5.808792,2.223839 8.034107,-0.0015 l 2.009608,-2.006384 c 2.225317,-2.225316 2.223838,-5.808792 -0.0015,-8.034106 -1.745687,-1.745688 -1.453239,-2.625466 -0.510503,-5.532228 0.739518,-2.280173 1.686633,-4.128087 3.208222,-4.535797 3.039839,-0.814521 4.832857,-3.917162 4.018334,-6.957 l -0.737178,-2.74238 C 58.252001,21.238736 55.149358,19.445717 52.10952,20.26024 49.92436,20.845751 48.444008,19.657341 46.458023,17.412634 44.847654,15.592481 44.311244,14.490199 44.739979,12.890138 45.5545,9.8502995 43.762111,6.7457903 40.722274,5.931268 L 39.351522,5.5639763 Z"
     id="path2" /><path
     style="fill:#455a64"
     d="M 37.980771,4.1965503 C 34.940932,3.3820281 31.836423,5.1744177 31.0219,8.2142558 c -0.428735,1.6000607 -1.444421,2.2864592 -3.749116,3.0575752 -2.842268,0.95098 -4.718493,1.239996 -6.318146,-0.359651 -2.225314,-2.2253166 -5.80879,-2.223838 -8.034107,0.0015 l -2.009606,2.00638 c -2.2253164,2.225318 -2.223837,5.808791 0.0015,8.034107 1.113881,1.11388 1.010148,3.187779 0.510503,5.532227 -0.636947,2.988696 -0.823568,3.896832 -3.2082219,4.535797 -3.0398384,0.814522 -4.8328566,3.917162 -4.0183349,6.957001 l 0.7371784,2.742384 c 0.8145217,3.039838 3.9171637,4.832856 6.9570014,4.018336 2.086905,-0.559184 3.183657,0.516046 4.880898,2.131586 2.2827,2.172821 3.023714,3.241606 2.488644,5.238514 -0.814521,3.03984 0.977869,6.144349 4.017705,6.958869 l 1.370752,0.367293 1.370751,0.367292 c 3.039837,0.814522 6.144348,-0.977868 6.958871,-4.017705 0.535068,-1.99691 1.711199,-2.551997 4.774487,-3.292365 2.277623,-0.55048 3.765051,-0.933279 5.292773,0.59444 2.225316,2.225316 5.808792,2.223839 8.034107,-0.0015 l 2.009608,-2.006384 c 2.225317,-2.225316 2.223838,-5.808792 -0.0015,-8.034106 -1.745687,-1.745688 -1.453239,-2.625466 -0.510503,-5.532228 0.739518,-2.280173 1.686633,-4.128087 3.208222,-4.535797 3.039839,-0.814521 4.832857,-3.917162 4.018334,-6.957 l -0.737178,-2.74238 C 58.252001,20.238602 55.149358,18.445583 52.10952,19.260106 49.92436,19.845617 48.444008,18.657207 46.458023,16.4125 44.847654,14.592347 44.311244,13.490065 44.739979,11.890004 45.5545,8.8501653 43.762111,5.7456561 40.722274,4.9311338 L 39.351522,4.5638421 Z"
     id="path4" /><path
     style="opacity:0.2"
     d="m 32,22.000134 c 6.075163,0 11,4.924838 11,11 0,6.075163 -4.924837,11 -11,11 -6.075163,0 -11,-4.924837 -11,-11 0,-6.075162 4.924837,-11 11,-11 z"
     id="path6" /><path
     fill="#ffffff"
     d="m 32,21 c 6.075163,0 11,4.924838 11,11 0,6.075163 -4.924837,11 -11,11 -6.075163,0 -11,-4.924837 -11,-11 0,-6.075162 4.924837,-11 11,-11 z"
     id="path8" /><path
     style="fill:#ffffff;opacity:0.1"
     d="M 36.279297 4.0039062 C 33.856983 4.0975681 31.683284 5.7449753 31.021484 8.2148438 C 30.592749 9.8149045 29.578133 10.500368 27.273438 11.271484 C 24.431169 12.222464 22.554731 12.511756 20.955078 10.912109 C 18.729764 8.6867928 15.145239 8.6887245 12.919922 10.914062 L 10.910156 12.919922 C 9.6694196 14.160659 9.124346 15.823157 9.2675781 17.4375 C 9.3802358 16.155822 9.9251186 14.90496 10.910156 13.919922 L 12.919922 11.914062 C 15.145239 9.6887247 18.729764 9.686793 20.955078 11.912109 C 22.554731 13.511756 24.431169 13.222464 27.273438 12.271484 C 29.578133 11.500368 30.592749 10.814905 31.021484 9.2148438 C 31.836007 6.1750057 34.94063 4.3827434 37.980469 5.1972656 L 39.351562 5.5644531 L 40.722656 5.9316406 C 43.098886 6.5683497 44.705832 8.605431 44.908203 10.916016 C 45.15145 8.2130349 43.437339 5.6590381 40.722656 4.9316406 L 39.351562 4.5644531 L 37.980469 4.1972656 C 37.410499 4.0445427 36.838292 3.982292 36.279297 4.0039062 z M 44.646484 13.361328 C 44.438849 14.718852 45.012504 15.777195 46.458984 17.412109 C 48.444969 19.656816 49.924215 20.845277 52.109375 20.259766 C 55.149213 19.445243 58.251885 21.239458 59.066406 24.279297 L 59.802734 27.021484 C 59.890038 27.347305 59.94359 27.673678 59.972656 27.998047 C 60.029634 27.352009 59.980814 26.686086 59.802734 26.021484 L 59.066406 23.279297 C 58.251885 20.239458 55.149213 18.445243 52.109375 19.259766 C 49.924215 19.845277 48.444969 18.656816 46.458984 16.412109 C 45.382695 15.195611 44.795804 14.299421 44.646484 13.361328 z M 11.761719 24.162109 C 11.718828 24.885645 11.598361 25.66738 11.423828 26.486328 C 10.786881 29.475024 10.599498 30.382519 8.2148438 31.021484 C 5.5006415 31.748752 3.7849435 34.301778 4.0273438 37.003906 C 4.2302449 34.694215 5.8389414 32.658105 8.2148438 32.021484 C 10.599498 31.382519 10.786881 30.475024 11.423828 27.486328 C 11.682579 26.272212 11.829449 25.135352 11.761719 24.162109 z M 51.873047 41.039062 C 51.6977 42.182271 51.983812 42.942796 53.087891 44.046875 C 54.077495 45.036469 54.624595 46.294145 54.734375 47.582031 C 54.882358 45.962175 54.333154 44.290171 53.087891 43.044922 C 52.337053 42.294084 51.980225 41.699705 51.873047 41.039062 z M 19.376953 51.521484 C 19.349208 51.710818 19.315236 51.902356 19.259766 52.109375 C 19.081953 52.772983 19.035281 53.438709 19.091797 54.083984 C 19.120932 53.760232 19.172641 53.434529 19.259766 53.109375 C 19.419204 52.514344 19.451148 52.005465 19.376953 51.521484 z"
     id="path10" /><g
     aria-label="KB"
     transform="scale(1.0113928,0.98873553)"
     id="text3860"
     style="font-weight:bold;font-size:32.3645px;line-height:1.25;font-family:'Rounded Mplus 1c';-inkscape-font-specification:'Rounded Mplus 1c Bold';stroke-width:1.01139"><g
       id="g1752"
       style="stroke:#ffffff;stroke-width:1.2;stroke-dasharray:none;stroke-opacity:1"
       transform="matrix(1.1639351,0,0,1.1961173,-10.77748,0.32096609)"><path
         d="m 34.503795,13.900557 6.084525,10.486098 q 0.323645,0.517832 0,1.068028 -0.323645,0.517832 -0.93857,0.517832 h -3.754282 q -1.844776,0 -2.686253,-1.618225 l -4.919404,-9.35334 q 0,-0.03236 -0.03236,-0.03236 -0.03236,0 -0.03236,0.03236 v 9.126789 q 0,0.744383 -0.550196,1.29458 -0.550197,0.550196 -1.29458,0.550196 h -2.783347 q -0.744384,0 -1.29458,-0.550196 -0.550197,-0.550197 -0.550197,-1.29458 V 4.1912079 q 0,-0.7443835 0.550197,-1.29458 0.550196,-0.5501964 1.29458,-0.5501964 h 2.783347 q 0.744383,0 1.29458,0.5501964 0.550196,0.5501965 0.550196,1.29458 v 8.1558531 q 0,0.03237 0.03236,0.03237 0.03236,0 0.03236,-0.03237 l 4.563394,-8.3824046 q 0.873842,-1.6182249 2.718618,-1.6182249 h 3.754282 q 0.614925,0 0.906206,0.5501964 0.323645,0.517832 0,1.035664 l -5.728516,9.5151621 q -0.161823,0.194187 0,0.453103 z"
         style="font-weight:900;-inkscape-font-specification:'Rounded Mplus 1c Heavy';fill:#fa4500;stroke:#ffffff;stroke-width:1.2;stroke-dasharray:none;stroke-opacity:1"
         id="path1698" /><path
         d="m 51.592223,21.441485 q 1.94187,0 2.815712,-0.712019 0.906206,-0.712019 0.906206,-2.200785 0,-2.427338 -3.560095,-2.427338 h -1.326945 q -0.29128,0 -0.29128,0.291281 v 4.595758 q 0,0.291281 0.258916,0.35601 0.582561,0.09709 1.197486,0.09709 z M 50.135821,7.3305642 v 3.9484688 q 0,0.29128 0.29128,0.29128 h 0.679655 q 3.721917,0 3.721917,-2.4273369 0,-2.2655149 -3.23645,-2.2655149 -0.614925,0 -1.197486,0.097093 -0.258916,0.064729 -0.258916,0.35601 z m 5.696151,6.2139838 q 2.492067,0.323645 3.980834,1.909505 1.488767,1.585861 1.488767,3.721917 0,3.657189 -2.394973,5.404872 -2.362609,1.715318 -7.638022,1.715318 -2.686253,0 -5.599058,-0.258916 -0.776748,-0.06473 -1.326944,-0.64729 -0.517832,-0.614925 -0.517832,-1.424038 V 4.3530303 q 0,-0.7767479 0.517832,-1.3916734 0.517832,-0.6149254 1.29458,-0.6796544 2.750982,-0.258916 5.307777,-0.258916 9.70935,0 9.70935,6.1492546 0,2.0713279 -1.326945,3.5277299 -1.29458,1.424038 -3.495366,1.780048 -0.03236,0 -0.03236,0.03236 0,0.03237 0.03236,0.03237 z"
         style="font-weight:900;-inkscape-font-specification:'Rounded Mplus 1c Heavy';fill:#fa4500;stroke:#ffffff;stroke-width:1.2;stroke-dasharray:none;stroke-opacity:1"
         id="path1700" /></g></g></svg>
