<?xml version="1.0" encoding="UTF-8" standalone="no"?>
<svg
   xmlns:dc="http://purl.org/dc/elements/1.1/"
   xmlns:cc="http://creativecommons.org/ns#"
   xmlns:rdf="http://www.w3.org/1999/02/22-rdf-syntax-ns#"
   xmlns:svg="http://www.w3.org/2000/svg"
   xmlns="http://www.w3.org/2000/svg"
   xmlns:xlink="http://www.w3.org/1999/xlink"
   xmlns:sodipodi="http://sodipodi.sourceforge.net/DTD/sodipodi-0.dtd"
   xmlns:inkscape="http://www.inkscape.org/namespaces/inkscape"
   inkscape:version="1.0 (4035a4fb49, 2020-05-01)"
   sodipodi:docname="arrow-alt-circle-right.svg"
   id="svg2051"
   version="1.1"
   viewBox="0 0 512 512">
  <metadata
     id="metadata2057">
    <rdf:RDF>
      <cc:Work
         rdf:about="">
        <dc:format>image/svg+xml</dc:format>
        <dc:type
           rdf:resource="http://purl.org/dc/dcmitype/StillImage" />
        <dc:title></dc:title>
      </cc:Work>
    </rdf:RDF>
  </metadata>
  <defs
     id="defs2055">
    <linearGradient
       id="linearGradient2624"
       inkscape:collect="always">
      <stop
         id="stop2620"
         offset="0"
         style="stop-color:#00d9ff;stop-opacity:1" />
      <stop
         id="stop2622"
         offset="1"
         style="stop-color:#0800c0;stop-opacity:1" />
    </linearGradient>
    <linearGradient
       gradientTransform="matrix(0,1,1,0,0,0)"
       gradientUnits="userSpaceOnUse"
       y2="256"
       x2="504"
       y1="256"
       x1="8"
       id="linearGradient2626"
       xlink:href="#linearGradient2624"
       inkscape:collect="always" />
  </defs>
  <sodipodi:namedview
     inkscape:current-layer="svg2051"
     inkscape:window-maximized="1"
     inkscape:window-y="-8"
     inkscape:window-x="-8"
     inkscape:cy="256"
     inkscape:cx="256"
     inkscape:zoom="1.6601562"
     showgrid="false"
     id="namedview2053"
     inkscape:window-height="1017"
     inkscape:window-width="1920"
     inkscape:pageshadow="2"
     inkscape:pageopacity="0"
     guidetolerance="10"
     gridtolerance="10"
     objecttolerance="10"
     borderopacity="1"
     bordercolor="#666666"
     pagecolor="#ffffff" />
  <path
     style="fill:url(#linearGradient2626);fill-opacity:1"
     id="path2049"
     d="M 8,256 C 8,119 119,8 256,8 393,8 504,119 504,256 504,393 393,504 256,504 119,504 8,393 8,256 Z m 448,0 C 456,145.5 366.5,56 256,56 145.5,56 56,145.5 56,256 c 0,110.5 89.5,200 200,200 110.5,0 200,-89.5 200,-200 z M 140,224 h 116 v -67 c 0,-10.7 12.9,-16 20.5,-8.5 l 99,99 c 4.7,4.7 4.7,12.3 0,17 l -99,99 C 268.9,371.1 256,365.7 256,355 V 288 H 140 c -6.6,0 -12,-5.4 -12,-12 v -40 c 0,-6.6 5.4,-12 12,-12 z" />
</svg>
