<?xml version="1.0" encoding="UTF-8" standalone="no"?>
<!-- Created with Inkscape (http://www.inkscape.org/) -->

<svg
   width="64.0px"
   height="64.0px"
   viewBox="0 0 64.0 64.0"
   version="1.1"
   id="SVGRoot"
   sodipodi:docname="light-zone-2.svg"
   xml:space="preserve"
   inkscape:version="1.2.2 (732a01da63, 2022-12-09)"
   xmlns:inkscape="http://www.inkscape.org/namespaces/inkscape"
   xmlns:sodipodi="http://sodipodi.sourceforge.net/DTD/sodipodi-0.dtd"
   xmlns="http://www.w3.org/2000/svg"
   xmlns:svg="http://www.w3.org/2000/svg"><sodipodi:namedview
     id="namedview8231"
     pagecolor="#000000"
     bordercolor="#666666"
     borderopacity="1.0"
     inkscape:showpageshadow="2"
     inkscape:pageopacity="0"
     inkscape:pagecheckerboard="0"
     inkscape:deskcolor="#d1d1d1"
     inkscape:document-units="px"
     showgrid="true"
     inkscape:zoom="5.7801948"
     inkscape:cx="32.005842"
     inkscape:cy="40.137056"
     inkscape:window-width="1920"
     inkscape:window-height="1009"
     inkscape:window-x="-8"
     inkscape:window-y="-8"
     inkscape:window-maximized="1"
     inkscape:current-layer="g10721"><inkscape:grid
       type="xygrid"
       id="grid8354" /></sodipodi:namedview><defs
     id="defs8226"><inkscape:path-effect
       effect="spiro"
       id="path-effect4571"
       is_visible="true"
       lpeversion="1" /><inkscape:path-effect
       effect="fillet_chamfer"
       id="path-effect4298"
       is_visible="true"
       lpeversion="1"
       nodesatellites_param="F,0,0,1,0,4,0,1 @ F,0,0,1,0,4,0,1 @ F,0,0,1,0,4,0,1 @ F,0,0,1,0,4,0,1 @ F,0,0,1,0,4,0,1 @ F,0,0,1,0,4,0,1 @ F,0,0,1,0,4,0,1 @ F,0,0,1,0,4,0,1 @ F,0,0,1,0,4,0,1 @ F,0,0,1,0,4,0,1 @ F,0,0,1,0,4,0,1 @ F,0,0,1,0,4,0,1 @ F,0,0,1,0,4,0,1 @ F,0,0,1,0,4,0,1 @ F,0,0,1,0,4,0,1 @ F,0,0,1,0,4,0,1"
       unit="px"
       method="auto"
       mode="F"
       radius="4"
       chamfer_steps="1"
       flexible="false"
       use_knot_distance="true"
       apply_no_radius="true"
       apply_with_radius="true"
       only_selected="false"
       hide_knots="false" /><inkscape:path-effect
       effect="fillet_chamfer"
       id="path-effect4069"
       is_visible="true"
       lpeversion="1"
       nodesatellites_param="F,0,0,1,0,12,0,1 @ F,0,0,1,0,12,0,1 @ F,0,0,1,0,12,0,1 @ F,0,0,1,0,12,0,1"
       unit="px"
       method="auto"
       mode="F"
       radius="12"
       chamfer_steps="1"
       flexible="false"
       use_knot_distance="true"
       apply_no_radius="true"
       apply_with_radius="true"
       only_selected="false"
       hide_knots="false" /></defs><g
     inkscape:label="Layer 1"
     inkscape:groupmode="layer"
     id="layer1"><g
       id="g10721"
       transform="matrix(1.009448,0,0,1.009448,-220.57031,-233.76883)"><g
         aria-label="3"
         id="text7728"
         style="font-size:261.333px;fill:#e4e4e4;stroke:#e4e4e4;stroke-width:2;stroke-linecap:round;stroke-linejoin:round;stroke-dasharray:none;stroke-opacity:1"
         transform="matrix(1.0395292,0,0,1.0395292,-9.0975982,-10.64459)" /><path
         d="m 240.30733,287.84195 c 0.001,0.77888 0.23157,1.54165 0.66368,2.1905 l 2.1162,3.18114 a 3.9612391,3.9612391 0 0 0 3.29876,1.76825 h 7.6414 a 3.9612391,3.9612391 0 0 0 3.29876,-1.76825 l 2.11621,-3.18114 a 3.9611154,3.9611154 0 0 0 0.66368,-2.1905 l 0.005,-4.74878 h -19.80988 z m -11.89486,-34.46736 c 0,5.49422 2.03696,10.50675 5.39392,14.33674 2.04563,2.33415 5.24533,7.21047 6.46503,11.32402 0.005,0.032 0.009,0.064 0.0139,0.0971 h 19.8421 c 0.005,-0.032 0.009,-0.0629 0.0139,-0.0971 1.21971,-4.11355 4.41941,-8.98987 6.46504,-11.32402 3.35696,-3.82999 5.39392,-8.84252 5.39392,-14.33674 0,-12.05955 -9.79352,-21.83077 -21.86172,-21.79363 -12.63164,0.0384 -21.72553,10.27396 -21.72553,21.79363 z m 21.79363,-9.9062 c -5.46204,0 -9.9062,4.44417 -9.9062,9.9062 0,1.09463 -0.88661,1.98124 -1.98123,1.98124 -1.09464,0 -1.98124,-0.88662 -1.98124,-1.98124 0,-7.64758 6.22109,-13.86867 13.86867,-13.86867 1.09463,0 1.98124,0.88661 1.98124,1.98124 0,1.09463 -0.88662,1.98123 -1.98124,1.98123 z"
         id="path11470"
         style="fill:#ffffff;stroke-width:0.123827" /><g
         aria-label="2"
         id="text11942"
         style="font-size:42.2673px;line-height:1.25;font-family:'DIN Next Rounded LT Pro';-inkscape-font-specification:'DIN Next Rounded LT Pro';fill:#5fd35f;stroke-width:1.98128086;stroke:#5fd35f;stroke-opacity:1;stroke-dasharray:none"><path
           d="m 257.20127,267.14879 c 0,0.46494 0.1268,0.84534 0.46494,1.14121 0.29587,0.29588 0.71854,0.42268 1.26801,0.42268 h 13.3142 c 0.50721,0 0.92988,-0.1268 1.26802,-0.42268 0.29587,-0.29587 0.46494,-0.71854 0.46494,-1.22575 0,-0.50721 -0.16907,-0.88761 -0.46494,-1.18348 -0.33814,-0.29587 -0.76081,-0.46494 -1.26802,-0.46494 H 262.062 v -0.0845 l 8.7916,-11.03176 c 1.85976,-2.3247 2.83191,-4.64941 2.83191,-6.97411 0,-2.28243 -0.76081,-4.14219 -2.1979,-5.62155 -1.47935,-1.43709 -3.42365,-2.1979 -5.83288,-2.1979 -2.24017,0 -4.05767,0.59175 -5.45249,1.73296 -1.35255,1.14122 -2.24016,2.53604 -2.62057,4.1422 -0.0423,0.2536 -0.0845,0.46494 -0.0845,0.63401 0,0.5072 0.16907,0.92988 0.5072,1.22575 0.33814,0.29587 0.76082,0.42267 1.26802,0.42267 0.84535,0 1.39482,-0.46494 1.64843,-1.39482 0.71854,-2.28243 2.24016,-3.46592 4.56487,-3.46592 1.39482,0 2.49377,0.42268 3.29685,1.26802 0.84534,0.84535 1.22575,1.9443 1.22575,3.25458 0,1.60616 -0.63401,3.25459 -1.98657,4.94528 l -9.80601,12.51112 c -0.67628,0.92988 -1.01441,1.73296 -1.01441,2.36697 z"
           id="path11944"
           style="stroke:#5fd35f;stroke-opacity:1;stroke-width:1.98128086;stroke-dasharray:none" /></g></g></g></svg>
