<?xml version="1.0" encoding="UTF-8" standalone="no"?>
<!-- Created with Inkscape (http://www.inkscape.org/) -->

<svg
   width="64.0px"
   height="64.0px"
   viewBox="0 0 64.0 64.0"
   version="1.1"
   id="SVGRoot"
   sodipodi:docname="light-zone-1.svg"
   xml:space="preserve"
   inkscape:version="1.2.2 (732a01da63, 2022-12-09)"
   xmlns:inkscape="http://www.inkscape.org/namespaces/inkscape"
   xmlns:sodipodi="http://sodipodi.sourceforge.net/DTD/sodipodi-0.dtd"
   xmlns="http://www.w3.org/2000/svg"
   xmlns:svg="http://www.w3.org/2000/svg"><sodipodi:namedview
     id="namedview8231"
     pagecolor="#000000"
     bordercolor="#666666"
     borderopacity="1.0"
     inkscape:showpageshadow="2"
     inkscape:pageopacity="0"
     inkscape:pagecheckerboard="0"
     inkscape:deskcolor="#d1d1d1"
     inkscape:document-units="px"
     showgrid="true"
     inkscape:zoom="5.7801948"
     inkscape:cx="32.005842"
     inkscape:cy="40.137056"
     inkscape:window-width="1920"
     inkscape:window-height="1009"
     inkscape:window-x="-8"
     inkscape:window-y="-8"
     inkscape:window-maximized="1"
     inkscape:current-layer="g10721"><inkscape:grid
       type="xygrid"
       id="grid8354" /></sodipodi:namedview><defs
     id="defs8226"><inkscape:path-effect
       effect="spiro"
       id="path-effect4571"
       is_visible="true"
       lpeversion="1" /><inkscape:path-effect
       effect="fillet_chamfer"
       id="path-effect4298"
       is_visible="true"
       lpeversion="1"
       nodesatellites_param="F,0,0,1,0,4,0,1 @ F,0,0,1,0,4,0,1 @ F,0,0,1,0,4,0,1 @ F,0,0,1,0,4,0,1 @ F,0,0,1,0,4,0,1 @ F,0,0,1,0,4,0,1 @ F,0,0,1,0,4,0,1 @ F,0,0,1,0,4,0,1 @ F,0,0,1,0,4,0,1 @ F,0,0,1,0,4,0,1 @ F,0,0,1,0,4,0,1 @ F,0,0,1,0,4,0,1 @ F,0,0,1,0,4,0,1 @ F,0,0,1,0,4,0,1 @ F,0,0,1,0,4,0,1 @ F,0,0,1,0,4,0,1"
       unit="px"
       method="auto"
       mode="F"
       radius="4"
       chamfer_steps="1"
       flexible="false"
       use_knot_distance="true"
       apply_no_radius="true"
       apply_with_radius="true"
       only_selected="false"
       hide_knots="false" /><inkscape:path-effect
       effect="fillet_chamfer"
       id="path-effect4069"
       is_visible="true"
       lpeversion="1"
       nodesatellites_param="F,0,0,1,0,12,0,1 @ F,0,0,1,0,12,0,1 @ F,0,0,1,0,12,0,1 @ F,0,0,1,0,12,0,1"
       unit="px"
       method="auto"
       mode="F"
       radius="12"
       chamfer_steps="1"
       flexible="false"
       use_knot_distance="true"
       apply_no_radius="true"
       apply_with_radius="true"
       only_selected="false"
       hide_knots="false" /></defs><g
     inkscape:label="Layer 1"
     inkscape:groupmode="layer"
     id="layer1"><g
       id="g10721"
       transform="matrix(1.009448,0,0,1.009448,-220.57031,-233.76883)"><g
         aria-label="3"
         id="text7728"
         style="font-size:261.333px;fill:#e4e4e4;stroke:#e4e4e4;stroke-width:2;stroke-linecap:round;stroke-linejoin:round;stroke-dasharray:none;stroke-opacity:1"
         transform="matrix(1.0395292,0,0,1.0395292,-9.0975982,-10.64459)" /><path
         d="m 240.30733,287.84195 c 0.001,0.77888 0.23157,1.54165 0.66368,2.1905 l 2.1162,3.18114 a 3.9612391,3.9612391 0 0 0 3.29876,1.76825 h 7.6414 a 3.9612391,3.9612391 0 0 0 3.29876,-1.76825 l 2.11621,-3.18114 a 3.9611154,3.9611154 0 0 0 0.66368,-2.1905 l 0.005,-4.74878 h -19.80988 z m -11.89486,-34.46736 c 0,5.49422 2.03696,10.50675 5.39392,14.33674 2.04563,2.33415 5.24533,7.21047 6.46503,11.32402 0.005,0.032 0.009,0.064 0.0139,0.0971 h 19.8421 c 0.005,-0.032 0.009,-0.0629 0.0139,-0.0971 1.21971,-4.11355 4.41941,-8.98987 6.46504,-11.32402 3.35696,-3.82999 5.39392,-8.84252 5.39392,-14.33674 0,-12.05955 -9.79352,-21.83077 -21.86172,-21.79363 -12.63164,0.0384 -21.72553,10.27396 -21.72553,21.79363 z m 21.79363,-9.9062 c -5.46204,0 -9.9062,4.44417 -9.9062,9.9062 0,1.09463 -0.88661,1.98124 -1.98123,1.98124 -1.09464,0 -1.98124,-0.88662 -1.98124,-1.98124 0,-7.64758 6.22109,-13.86867 13.86867,-13.86867 1.09463,0 1.98124,0.88661 1.98124,1.98124 0,1.09463 -0.88662,1.98123 -1.98124,1.98123 z"
         id="path11470"
         style="fill:#ffffff;stroke-width:0.123827" /><g
         aria-label="1"
         id="text11896"
         style="font-weight:bold;font-size:42.2687px;line-height:1.15;font-family:'DIN Next Rounded LT Pro';-inkscape-font-specification:'DIN Next Rounded LT Pro Bold';fill:#ff2a2a;stroke-width:1.98128086;stroke:#ff2a2a;stroke-opacity:1;stroke-dasharray:none"><path
           d="m 270.43115,266.7693 c 0,0.59177 0.16907,1.05672 0.50722,1.39487 0.33815,0.33815 0.76084,0.50723 1.26806,0.50723 0.50723,0 0.92991,-0.16908 1.26806,-0.50723 0.33815,-0.33815 0.50723,-0.8031 0.50723,-1.39487 v -25.23441 c 0,-0.59176 -0.21135,-1.09899 -0.5495,-1.4794 -0.33815,-0.33815 -0.8031,-0.5495 -1.35259,-0.5495 -0.76084,0 -1.60622,0.33815 -2.45159,0.97218 l -4.64956,3.3815 c -0.63403,0.42269 -0.92991,0.97218 -0.92991,1.56394 0,0.50723 0.12681,0.88764 0.46496,1.18352 0.29588,0.33815 0.6763,0.46496 1.18352,0.46496 0.33815,0 0.6763,-0.0845 1.01445,-0.33815 l 3.63511,-2.53612 h 0.0845 z"
           style="font-weight:normal;-inkscape-font-specification:'DIN Next Rounded LT Pro';text-align:center;text-anchor:middle;stroke:#ff2a2a;stroke-opacity:1;stroke-width:1.98128086;stroke-dasharray:none"
           id="path11911" /></g></g></g></svg>
