<?xml version="1.0" encoding="UTF-8" standalone="no"?>
<!-- Created with Inkscape (http://www.inkscape.org/) -->

<svg
   width="64.0px"
   height="64.0px"
   viewBox="0 0 64.0 64.0"
   version="1.1"
   id="SVGRoot"
   sodipodi:docname="light-zone-3.svg"
   xml:space="preserve"
   inkscape:version="1.2.2 (732a01da63, 2022-12-09)"
   xmlns:inkscape="http://www.inkscape.org/namespaces/inkscape"
   xmlns:sodipodi="http://sodipodi.sourceforge.net/DTD/sodipodi-0.dtd"
   xmlns="http://www.w3.org/2000/svg"
   xmlns:svg="http://www.w3.org/2000/svg"><sodipodi:namedview
     id="namedview8231"
     pagecolor="#000000"
     bordercolor="#666666"
     borderopacity="1.0"
     inkscape:showpageshadow="2"
     inkscape:pageopacity="0"
     inkscape:pagecheckerboard="0"
     inkscape:deskcolor="#d1d1d1"
     inkscape:document-units="px"
     showgrid="true"
     inkscape:zoom="5.7801948"
     inkscape:cx="32.005842"
     inkscape:cy="40.137056"
     inkscape:window-width="1920"
     inkscape:window-height="1009"
     inkscape:window-x="-8"
     inkscape:window-y="-8"
     inkscape:window-maximized="1"
     inkscape:current-layer="g10721"><inkscape:grid
       type="xygrid"
       id="grid8354" /></sodipodi:namedview><defs
     id="defs8226"><inkscape:path-effect
       effect="spiro"
       id="path-effect4571"
       is_visible="true"
       lpeversion="1" /><inkscape:path-effect
       effect="fillet_chamfer"
       id="path-effect4298"
       is_visible="true"
       lpeversion="1"
       nodesatellites_param="F,0,0,1,0,4,0,1 @ F,0,0,1,0,4,0,1 @ F,0,0,1,0,4,0,1 @ F,0,0,1,0,4,0,1 @ F,0,0,1,0,4,0,1 @ F,0,0,1,0,4,0,1 @ F,0,0,1,0,4,0,1 @ F,0,0,1,0,4,0,1 @ F,0,0,1,0,4,0,1 @ F,0,0,1,0,4,0,1 @ F,0,0,1,0,4,0,1 @ F,0,0,1,0,4,0,1 @ F,0,0,1,0,4,0,1 @ F,0,0,1,0,4,0,1 @ F,0,0,1,0,4,0,1 @ F,0,0,1,0,4,0,1"
       unit="px"
       method="auto"
       mode="F"
       radius="4"
       chamfer_steps="1"
       flexible="false"
       use_knot_distance="true"
       apply_no_radius="true"
       apply_with_radius="true"
       only_selected="false"
       hide_knots="false" /><inkscape:path-effect
       effect="fillet_chamfer"
       id="path-effect4069"
       is_visible="true"
       lpeversion="1"
       nodesatellites_param="F,0,0,1,0,12,0,1 @ F,0,0,1,0,12,0,1 @ F,0,0,1,0,12,0,1 @ F,0,0,1,0,12,0,1"
       unit="px"
       method="auto"
       mode="F"
       radius="12"
       chamfer_steps="1"
       flexible="false"
       use_knot_distance="true"
       apply_no_radius="true"
       apply_with_radius="true"
       only_selected="false"
       hide_knots="false" /></defs><g
     inkscape:label="Layer 1"
     inkscape:groupmode="layer"
     id="layer1"><g
       id="g10721"
       transform="matrix(1.009448,0,0,1.009448,-220.57031,-233.76883)"><g
         aria-label="3"
         id="text7728"
         style="font-size:261.333px;fill:#e4e4e4;stroke:#e4e4e4;stroke-width:2;stroke-linecap:round;stroke-linejoin:round;stroke-dasharray:none;stroke-opacity:1"
         transform="matrix(1.0395292,0,0,1.0395292,-9.0975982,-10.64459)" /><path
         d="m 240.30733,287.84195 c 0.001,0.77888 0.23157,1.54165 0.66368,2.1905 l 2.1162,3.18114 a 3.9612391,3.9612391 0 0 0 3.29876,1.76825 h 7.6414 a 3.9612391,3.9612391 0 0 0 3.29876,-1.76825 l 2.11621,-3.18114 a 3.9611154,3.9611154 0 0 0 0.66368,-2.1905 l 0.005,-4.74878 h -19.80988 z m -11.89486,-34.46736 c 0,5.49422 2.03696,10.50675 5.39392,14.33674 2.04563,2.33415 5.24533,7.21047 6.46503,11.32402 0.005,0.032 0.009,0.064 0.0139,0.0971 h 19.8421 c 0.005,-0.032 0.009,-0.0629 0.0139,-0.0971 1.21971,-4.11355 4.41941,-8.98987 6.46504,-11.32402 3.35696,-3.82999 5.39392,-8.84252 5.39392,-14.33674 0,-12.05955 -9.79352,-21.83077 -21.86172,-21.79363 -12.63164,0.0384 -21.72553,10.27396 -21.72553,21.79363 z m 21.79363,-9.9062 c -5.46204,0 -9.9062,4.44417 -9.9062,9.9062 0,1.09463 -0.88661,1.98124 -1.98123,1.98124 -1.09464,0 -1.98124,-0.88662 -1.98124,-1.98124 0,-7.64758 6.22109,-13.86867 13.86867,-13.86867 1.09463,0 1.98124,0.88661 1.98124,1.98124 0,1.09463 -0.88662,1.98123 -1.98124,1.98123 z"
         id="path11470"
         style="fill:#ffffff;stroke-width:0.123827" /><g
         aria-label="3"
         id="text11975"
         style="font-weight:bold;font-size:42.2665px;line-height:1.25;font-family:'DIN Next Rounded LT Pro';-inkscape-font-specification:'DIN Next Rounded LT Pro Bold';fill:#2a7fff;stroke-width:1.98128086;stroke:#2a7fff;stroke-opacity:1;stroke-dasharray:none"><path
           d="m 257.32872,264.18961 c 0.59173,1.5216 1.56386,2.70506 2.91639,3.63492 1.35253,0.92986 3.08546,1.35253 5.15652,1.35253 2.53599,0 4.56478,-0.7608 6.1709,-2.36692 1.60613,-1.56387 2.40919,-3.59266 2.40919,-6.08638 0,-1.77519 -0.38039,-3.33905 -1.22572,-4.60705 -0.84533,-1.26799 -1.7752,-2.15559 -2.87413,-2.57826 v -0.0845 c 2.36693,-1.43706 3.55039,-3.55038 3.55039,-6.25544 0,-2.28239 -0.71853,-4.09985 -2.19786,-5.53691 -1.43706,-1.43706 -3.42358,-2.15559 -5.91731,-2.15559 -1.94426,0 -3.59265,0.46493 -4.94518,1.39479 -1.31026,0.92986 -2.19786,2.07106 -2.70505,3.46585 -0.0845,0.33814 -0.16907,0.634 -0.16907,0.8876 0,0.42267 0.16907,0.80306 0.46493,1.09893 0.33813,0.29587 0.71853,0.46493 1.18346,0.46493 0.71853,0 1.268,-0.42266 1.6484,-1.22573 0.84533,-1.85972 2.32465,-2.74732 4.39571,-2.74732 1.43706,0 2.57826,0.3804 3.38132,1.22573 0.84533,0.84533 1.22573,1.94426 1.22573,3.33905 0,1.43706 -0.42266,2.62053 -1.31026,3.50812 -0.8876,0.84533 -2.02879,1.31026 -3.46585,1.31026 h -0.2536 c -0.5072,0 -0.92987,0.1268 -1.268,0.42267 -0.29586,0.29586 -0.46493,0.71853 -0.46493,1.22573 0,0.50719 0.16907,0.88759 0.46493,1.18346 0.33813,0.29586 0.7608,0.46493 1.268,0.46493 h 0.29586 c 1.60613,0 2.91639,0.46493 3.84625,1.43706 0.97213,0.97213 1.43707,2.24013 1.43707,3.84625 0,1.5216 -0.42267,2.74732 -1.31027,3.67719 -0.84533,0.92986 -2.07105,1.43706 -3.63491,1.43706 -2.24013,0 -3.84626,-0.97213 -4.86065,-2.87412 -0.42267,-0.84533 -0.97213,-1.22573 -1.69066,-1.22573 -0.46493,0 -0.84533,0.1268 -1.18346,0.46493 -0.33814,0.29587 -0.5072,0.67626 -0.5072,1.1412 0,0.25359 0.0845,0.50719 0.16906,0.76079 z"
           id="path11977"
           style="stroke:#2a7fff;stroke-opacity:1;stroke-width:1.98128086;stroke-dasharray:none" /></g></g></g></svg>
