<?xml version="1.0" encoding="UTF-8" standalone="no"?>
<!-- Created with Inkscape (http://www.inkscape.org/) -->

<svg
   width="128"
   height="80"
   viewBox="0 0 128 80"
   version="1.1"
   id="SVGRoot"
   sodipodi:docname="remote-hardware-128.svg"
   inkscape:version="1.2.2 (732a01da63, 2022-12-09)"
   xml:space="preserve"
   inkscape:export-filename="remote-basic-128.svg"
   inkscape:export-xdpi="38.400002"
   inkscape:export-ydpi="38.400002"
   xmlns:inkscape="http://www.inkscape.org/namespaces/inkscape"
   xmlns:sodipodi="http://sodipodi.sourceforge.net/DTD/sodipodi-0.dtd"
   xmlns:xlink="http://www.w3.org/1999/xlink"
   xmlns="http://www.w3.org/2000/svg"
   xmlns:svg="http://www.w3.org/2000/svg"><sodipodi:namedview
     id="namedview137"
     pagecolor="#ffffff"
     bordercolor="#666666"
     borderopacity="1.0"
     inkscape:showpageshadow="2"
     inkscape:pageopacity="0.0"
     inkscape:pagecheckerboard="0"
     inkscape:deskcolor="#d1d1d1"
     inkscape:document-units="px"
     showgrid="true"
     inkscape:zoom="2.0000001"
     inkscape:cx="189.25"
     inkscape:cy="88.499998"
     inkscape:window-width="1920"
     inkscape:window-height="1009"
     inkscape:window-x="-8"
     inkscape:window-y="-8"
     inkscape:window-maximized="1"
     inkscape:current-layer="layer1"><inkscape:grid
       type="xygrid"
       id="grid260"
       originx="-4"
       originy="-12" /></sodipodi:namedview><defs
     id="defs132"><linearGradient
       inkscape:collect="always"
       id="linearGradient1124"><stop
         style="stop-color:#ececec;stop-opacity:0;"
         offset="0"
         id="stop1122" /><stop
         style="stop-color:#ececec;stop-opacity:0.44292241;"
         offset="1"
         id="stop1120" /></linearGradient><linearGradient
       inkscape:collect="always"
       xlink:href="#linearGradient1124"
       id="linearGradient1126"
       x1="209.84029"
       y1="330.24622"
       x2="496.70709"
       y2="96.90097"
       gradientUnits="userSpaceOnUse"
       spreadMethod="pad"
       gradientTransform="matrix(0.25,0,0,0.25,0,-12)" /></defs><g
     inkscape:label="Layer 1"
     inkscape:groupmode="layer"
     id="layer1"
     transform="translate(-4,-12)"><g
       id="g2599"
       transform="translate(4)"><rect
         style="fill:#1a1a1a;stroke-width:0.499843;stroke-linecap:round;stroke-linejoin:round"
         id="rect369"
         width="120"
         height="80"
         x="4"
         y="12"
         rx="9"
         ry="9" /><rect
         style="fill:#000000;stroke-width:0.499843;stroke-linecap:round;stroke-linejoin:round"
         id="rect369-0"
         width="110"
         height="70"
         x="9"
         y="17"
         rx="4"
         ry="4" /><g
         id="g10721"
         transform="matrix(0.0986325,0,0,0.0986325,38.706075,25.43984)"><rect
           style="fill:#898989;fill-opacity:1;stroke:none;stroke-width:12.0855;stroke-linecap:butt;stroke-linejoin:round;stroke-miterlimit:4;stroke-dasharray:none;stroke-opacity:1;paint-order:normal"
           id="rect7631-6-8"
           width="32.287079"
           height="57.724228"
           x="113.24359"
           y="60.969616" /><rect
           style="fill:#898989;fill-opacity:1;stroke:none;stroke-width:10.3649;stroke-linecap:butt;stroke-linejoin:round;stroke-miterlimit:4;stroke-dasharray:none;stroke-opacity:1;paint-order:normal"
           id="rect7631-0"
           width="23.748579"
           height="57.724228"
           x="366.78143"
           y="67.055489" /><path
           id="rect4379-9"
           style="fill:none;stroke:#898989;stroke-width:33.2649;stroke-linecap:butt;stroke-linejoin:round;stroke-dasharray:none;stroke-opacity:1;paint-order:normal"
           d="m 156.50624,185.06605 h 199.0313 l -4.7e-4,257.24448 v 46.01892 -46.01892 l -74.63627,4.8e-4 -124.39408,-4.8e-4 v 50.19575 l -33.54457,-0.0187 v -50.17704 h 33.54457 z M 141.19331,46.06173 H 370.8259 c 6.8894,0 12.47435,5.584964 12.47435,12.47435 l 0.2505,9.823562 h 22.16335 v 50.936918 h -22.1638 v 23.68621 32.17529 c 0,6.88938 -5.835,9.05744 -12.7244,9.05744 H 141.19331 c -6.8894,0 -12.47435,-5.58496 -12.47435,-12.47435 l 1e-4,-53.48412 H 106.32968 V 68.594576 l 22.50114,7.2e-5 -0.11176,-10.630298 c -0.0725,-6.889023 5.58485,-11.90262 12.47425,-11.90262 z"
           sodipodi:nodetypes="ccccccccccccssccccccsssccccccs" /><path
           style="fill:#e4e4e4;fill-opacity:1;stroke:#898989;stroke-width:10.3953;stroke-linecap:butt;stroke-linejoin:round;stroke-miterlimit:4;stroke-dasharray:none;stroke-opacity:1"
           d="m 359.05239,191.02403 c 6.80155,0.73191 9.88726,2.94424 15.18508,7.27204 5.29782,4.32779 10.52761,9.89714 12.60188,16.41589 21.16644,34.41687 36.50864,61.40865 63.17657,82.15439 1.98349,1.44327 1.9282,1.46365 5.51036,3.16011 32.09754,5.41091 52.75804,28.37534 48.68027,50.20574 -0.55597,2.41403 -1.3082,4.89362 -3.00298,6.70037 -3.98021,2.10943 -6.96166,0.50266 -9.21486,-3.63066 -6.47037,-7.97048 -12.20205,-13.76415 -20.48843,-18.16808 -4.87397,-1.77916 -9.20572,1.18656 -10.0956,6.60965 -1.50716,5.90068 3.14453,11.66765 8.1729,14.08056 4.8272,2.40943 11.12262,4.74492 9.27543,9.62817 -0.43832,1.14795 -2.8936,4.25307 -6.04695,4.22674 -12.36272,0.50637 -26.54131,-1.51501 -33.39181,-10.93342 -21.93303,-25.52583 -32.46164,-37.38447 -41.64262,-58.49616 -11.00052,-14.85791 -20.20002,-19.4998 -30.91138,-27.76386 -17.9417,-14.05678 -8.50342,-62.81351 -7.80786,-81.46145 z"
           id="path4569"
           sodipodi:nodetypes="sscccccccccccccccs" /><path
           style="fill:#e4e4e4;fill-opacity:1;stroke:#898989;stroke-width:10.3953;stroke-linecap:butt;stroke-linejoin:round;stroke-miterlimit:4;stroke-dasharray:none;stroke-opacity:1"
           d="m 153.83988,191.02403 c -6.80155,0.73191 -9.88726,2.94424 -15.18508,7.27204 -5.29782,4.32779 -10.52761,9.89714 -12.60188,16.41589 -21.16644,34.41687 -36.508636,61.40865 -63.176561,82.15439 -1.983493,1.44327 -1.928201,1.46365 -5.510356,3.16011 -32.097552,5.41091 -52.7580475,28.37534 -48.6802758,50.20574 0.555961,2.41403 1.3081955,4.89362 3.0029698,6.70037 3.980212,2.10943 6.961665,0.50266 9.214866,-3.63066 6.470372,-7.97048 12.202044,-13.76415 20.488422,-18.16808 4.873978,-1.77916 9.205727,1.18656 10.095606,6.60965 1.50716,5.90068 -3.144535,11.66765 -8.172904,14.08056 -4.827198,2.40943 -11.122619,4.74492 -9.275427,9.62817 0.438317,1.14795 2.893602,4.25307 6.046952,4.22674 12.362714,0.50637 26.541319,-1.51501 33.391816,-10.93342 21.933025,-25.52583 32.461632,-37.38447 41.642612,-58.49616 11.00052,-14.85791 20.20002,-19.4998 30.91138,-27.76386 17.9417,-14.05678 8.50342,-62.81351 7.80786,-81.46145 z"
           id="path4569-3"
           sodipodi:nodetypes="sscccccccccccccccs" /><path
           id="rect4379"
           style="fill:none;stroke:#e4e4e4;stroke-width:16.6325;stroke-linecap:butt;stroke-linejoin:round;stroke-dasharray:none;stroke-opacity:1;paint-order:normal"
           d="m 156.93049,185.06604 h 199.0313 l -4.7e-4,257.24448 v 46.01892 -46.01892 l -74.63627,4.8e-4 -124.39408,-4.8e-4 v 50.19575 l -33.54457,-0.0187 v -50.17704 h 33.54457 z M 141.61756,46.061729 h 229.63259 c 6.8894,0 12.47435,5.584957 12.47435,12.47435 l 0.2505,9.823553 h 22.16335 v 50.936928 h -22.1638 v 23.68621 32.17528 c 0,6.88938 -5.835,9.05744 -12.7244,9.05744 H 141.61756 c -6.8894,0 -12.47435,-5.58496 -12.47435,-12.47435 l 1e-4,-53.48411 H 106.75393 V 68.594565 l 22.50114,8.1e-5 -0.11176,-10.630307 c -0.0725,-6.889013 5.58485,-11.90261 12.47425,-11.90261 z"
           sodipodi:nodetypes="ccccccccccccssccccccsssccccccs" /><rect
           style="fill:#e4e4e4;fill-opacity:1;stroke:none;stroke-width:10.3953;stroke-linecap:butt;stroke-linejoin:round;stroke-miterlimit:4;stroke-dasharray:none;stroke-opacity:1;paint-order:normal"
           id="rect7629"
           width="29.361469"
           height="45.982883"
           x="125.69151"
           y="445.93842" /><rect
           style="fill:#e4e4e4;fill-opacity:1;stroke:none;stroke-width:10.3953;stroke-linecap:butt;stroke-linejoin:round;stroke-miterlimit:4;stroke-dasharray:none;stroke-opacity:1;paint-order:normal"
           id="rect7631"
           width="23.88801"
           height="57.724228"
           x="375.31747"
           y="69.651169" /><rect
           style="fill:#e4e4e4;fill-opacity:1;stroke:none;stroke-width:10.3953;stroke-linecap:butt;stroke-linejoin:round;stroke-miterlimit:4;stroke-dasharray:none;stroke-opacity:1;paint-order:normal"
           id="rect7631-6"
           width="23.88801"
           height="57.724228"
           x="113.20639"
           y="62.009647" /><g
           aria-label="3"
           id="text7728"
           style="font-size:261.333px;fill:#e4e4e4;stroke:#e4e4e4;stroke-width:2;stroke-linecap:round;stroke-linejoin:round;stroke-dasharray:none;stroke-opacity:1"
           transform="matrix(1.0395292,0,0,1.0395292,-9.0975982,-10.64459)"><path
             d="m 253.48614,398.21845 c 35.01863,0 65.85592,-17.50931 65.85592,-48.3466 0,-21.42931 -16.20265,-35.01862 -37.10929,-40.50662 v -1.04533 c 19.86131,-7.57866 31.6213,-19.59998 31.6213,-36.84795 C 313.85407,242.46398 288.7661,226 252.70214,226 c -21.4293,0 -40.24528,8.10133 -56.44793,21.16798 l 19.33865,23.51997 c 11.49865,-9.14666 22.2133,-14.63465 35.27995,-14.63465 15.15732,0 24.56531,6.79466 24.56531,18.29331 0,13.32798 -12.02132,22.2133 -44.68795,22.2133 v 27.17864 c 38.93862,0 50.17594,9.14665 50.17594,23.7813 0,12.54399 -13.06665,19.59998 -31.09863,19.59998 -15.15731,0 -29.53063,-7.05599 -40.50662,-16.72532 l -17.77064,24.30397 c 12.80532,14.11199 33.45063,23.51997 61.93592,23.51997 z"
             style="font-weight:bold;font-family:'Source Code Pro';-inkscape-font-specification:'Source Code Pro Bold';stroke:#e4e4e4;stroke-width:2;stroke-linecap:round;stroke-linejoin:round;stroke-dasharray:none;stroke-opacity:1"
             id="path7796" /></g></g><path
         id="path540"
         style="fill:url(#linearGradient1126);fill-opacity:1;stroke-width:0.499843;stroke-linecap:round;stroke-linejoin:round"
         d="M 23.999023,12 103.99951,92 H 115 c 4.98599,0 9,-4.01401 9,-9 V 21 c 0,-4.986 -4.01401,-9 -9,-9 z" /></g></g></svg>
